#!OML:ASF I:\Actors\actors\Patient Classification 2\Patient 1\Session 1\actor1.ASF
:FULLY-SPECIFIED
:DEGREES
491
root -0.661278 18.6207 6.72885 2.1712 -0.750818 -4.74328
lowerback 0.640682 0.517854 0.750634
upperback -2.82176 0.743005 1.18717
thorax -3.26311 0.368089 0.773622
lowerneck -9.28243 -1.44248 0.606132
upperneck 30.2606 -2.8761 2.14121
head 11.3659 -0.983263 0.326893
rclavicle 1.39149e-014 -5.1684e-015
rhumerus -47.8441 -3.72666 -80.6665
rradius 57.8243
rwrist -10.5042
rhand -8.8215 -43.4518
rfingers 7.12502
rthumb 17.1183 -72.7177
lclavicle 1.39149e-014 -5.1684e-015
lhumerus -44.2932 0.949242 90.3375
lradius 41.2212
lwrist -5.94525
lhand -10.3835 -26.0238
lfingers 7.12502
lthumb 15.6143 3.36603
rfemur 0 0 0
rtibia 0
rfoot 0 0
rtoes 0
lfemur -3.67009 -7.24321 -10.1704
ltibia 24.4111
lfoot -26.2994 13.1109
ltoes -55.8821
492
root -0.660004 18.621 6.73097 2.18989 -0.74807 -4.73251
lowerback 0.59136 0.510536 0.802003
upperback -2.82102 0.733812 1.19421
thorax -3.23389 0.362294 0.752849
lowerneck -9.35882 -1.40774 0.662223
upperneck 30.0979 -2.77849 1.95836
head 11.3124 -0.95616 0.261214
rclavicle -1.6027e-014 -4.37326e-015
rhumerus -48.3361 -4.55555 -80.8336
rradius 55.9704
rwrist -10.1292
rhand -9.21191 -42.9017
rfingers 7.12502
rthumb 16.7424 -72.1998
lclavicle -1.6027e-014 -4.37326e-015
lhumerus -44.5318 0.373661 90.8344
lradius 41.3956
lwrist -5.6699
lhand -10.1496 -26.0478
lfingers 7.12502
lthumb 15.8396 3.32427
rfemur 0 0 0
rtibia 0
rfoot 0 0
rtoes 0
lfemur -3.6786 -7.14594 -10.168
ltibia 24.39
lfoot -26.261 13.0513
ltoes -55.9552
493
root -0.658772 18.6209 6.7327 2.19299 -0.738101 -4.70171
lowerback 0.57054 0.485344 0.809951
upperback -2.82721 0.701047 1.22815
thorax -3.22866 0.346239 0.78456
lowerneck -9.39798 -1.35568 0.737007
upperneck 29.8889 -2.63549 1.69799
head 11.2319 -0.91656 0.170056
rclavicle -8.48562e-015 -1.98785e-014
rhumerus -48.7894 -5.40506 -80.874
rradius 54.0871
rwrist -9.54474
rhand -9.46096 -42.2893
rfingers 7.12502
rthumb 16.5027 -71.6075
lclavicle -8.48562e-015 -1.98785e-014
lhumerus -44.703 0.0571436 91.2475
lradius 41.3922
lwrist -5.6577
lhand -10.0862 -26.1786
lfingers 7.12502
lthumb 15.9006 3.18858
rfemur 0 0 0
rtibia 0
rfoot 0 0
rtoes 0
lfemur -3.67162 -7.08235 -10.1938
ltibia 24.3698
lfoot -26.2888 12.9813
ltoes -55.9793
494
root -0.65742 18.6206 6.73411 2.19774 -0.721365 -4.65007
lowerback 0.5682 0.456121 0.806853
upperback -2.83055 0.663118 1.26958
thorax -3.23106 0.327993 0.830183
lowerneck -9.45731 -1.29708 0.656738
upperneck 29.6727 -2.49279 1.57989
head 11.1579 -0.876912 0.157857
rclavicle -1.14674e-014 -4.96962e-015
rhumerus -49.2092 -6.14851 -80.8662
rradius 52.4318
rwrist -8.92334
rhand -9.78786 -42.6267
rfingers 7.12502
rthumb 16.1879 -71.9707
lclavicle -1.14674e-014 -4.96962e-015
lhumerus -44.7759 -0.0823586 91.5865
lradius 41.2852
lwrist -5.81333
lhand -9.96866 -26.2808
lfingers 7.12502
lthumb 16.0138 3.0774
rfemur 0 0 0
rtibia 0
rfoot 0 0
rtoes 0
lfemur -3.66788 -7.08005 -10.2522
ltibia 24.3499
lfoot -26.3093 12.9816
ltoes -55.9773
495
root -0.655941 18.6205 6.73468 2.19912 -0.719535 -4.60687
lowerback 0.579084 0.452004 0.841869
upperback -2.83222 0.659085 1.28561
thorax -3.23873 0.325276 0.827101
lowerneck -9.54072 -1.25797 0.58938
upperneck 29.5014 -2.39973 1.51861
head 11.1076 -0.850537 0.157968
rclavicle 1.18277e-014 2.0276e-014
rhumerus -49.636 -6.87642 -80.786
rradius 50.917
rwrist -8.27894
rhand -10.5445 -42.9557
rfingers 7.12502
rthumb 15.4593 -72.3576
lclavicle 1.18277e-014 2.0276e-014
lhumerus -44.7629 -0.197153 91.8356
lradius 41.0837
lwrist -5.98862
lhand -9.68563 -26.2817
lfingers 7.12502
lthumb 16.2864 3.05431
rfemur 0 0 0
rtibia 0
rfoot 0 0
rtoes 0
lfemur -3.66076 -7.04523 -10.2985
ltibia 24.3274
lfoot -26.2405 12.9731
ltoes -55.9918
496
root -0.654099 18.6207 6.73394 2.20369 -0.726117 -4.56861
lowerback 0.588983 0.4543 0.896541
upperback -2.84686 0.663689 1.28068
thorax -3.25884 0.326012 0.791144
lowerneck -9.61931 -1.23927 0.632839
upperneck 29.3825 -2.33564 1.36792
head 11.0744 -0.835246 0.102899
rclavicle 2.07481e-015 -1.17283e-014
rhumerus -50.0516 -7.57349 -80.6442
rradius 49.4419
rwrist -7.47321
rhand -10.8101 -42.3238
rfingers 7.12502
rthumb 15.2034 -71.7452
lclavicle 2.07481e-015 -1.17283e-014
lhumerus -44.7875 -0.309221 92.0148
lradius 40.874
lwrist -6.32052
lhand -9.56751 -26.2804
lfingers 7.12502
lthumb 16.4001 3.0463
rfemur 0 0 0
rtibia 0
rfoot 0 0
rtoes 0
lfemur -3.66274 -7.01626 -10.3409
ltibia 24.3091
lfoot -26.1552 12.9804
ltoes -56.0711
497
root -0.651709 18.6211 6.73326 2.22829 -0.724796 -4.51785
lowerback 0.550772 0.423343 0.931273
upperback -2.85458 0.622912 1.29333
thorax -3.24474 0.304951 0.786352
lowerneck -9.66996 -1.18938 0.530973
upperneck 29.2172 -2.24092 1.37652
head 11.0218 -0.803728 0.134909
rclavicle -1.9133e-014 1.19271e-014
rhumerus -50.4085 -7.94693 -80.618
rradius 48.0528
rwrist -7.04535
rhand -10.5794 -41.8141
rfingers 7.12502
rthumb 15.4256 -71.2185
lclavicle -1.9133e-014 1.19271e-014
lhumerus -44.8244 -0.178088 92.0731
lradius 40.666
lwrist -6.96134
lhand -9.32673 -25.9009
lfingers 7.12502
lthumb 16.6319 3.40648
rfemur 0 0 0
rtibia 0
rfoot 0 0
rtoes 0
lfemur -3.69326 -6.96137 -10.3912
ltibia 24.2961
lfoot -26.0794 12.9564
ltoes -56.1274
498
root -0.648792 18.6207 6.73368 2.24057 -0.731693 -4.4853
lowerback 0.502446 0.380213 0.99026
upperback -2.85076 0.566131 1.31138
thorax -3.21275 0.275379 0.774092
lowerneck -9.74481 -1.11147 0.358472
upperneck 29.0649 -2.13075 1.52005
head 10.9817 -0.756375 0.229684
rclavicle -4.89507e-015 1.82882e-014
rhumerus -50.7803 -8.08771 -80.707
rradius 46.8179
rwrist -6.91557
rhand -10.5061 -41.842
rfingers 7.12502
rthumb 15.4962 -71.241
lclavicle -4.89507e-015 1.82882e-014
lhumerus -44.8565 0.0599628 92.028
lradius 40.4427
lwrist -7.55859
lhand -8.67556 -25.2381
lfingers 7.12502
lthumb 17.2587 4.0155
rfemur 0 0 0
rtibia 0
rfoot 0 0
rtoes 0
lfemur -3.69805 -6.91412 -10.4315
ltibia 24.2841
lfoot -26.0586 12.9258
ltoes -56.1332
499
root -0.646482 18.62 6.73298 2.24975 -0.730584 -4.46705
lowerback 0.469871 0.341002 1.04743
upperback -2.85625 0.514634 1.31779
thorax -3.1993 0.248288 0.750527
lowerneck -9.83511 -1.03858 0.369564
upperneck 28.9588 -2.01619 1.4824
head 10.9578 -0.707939 0.227395
rclavicle 6.33626e-015 -7.95139e-015
rhumerus -51.1805 -8.23293 -80.7409
rradius 45.7276
rwrist -6.40212
rhand -9.90959 -42.2434
rfingers 7.12502
rthumb 16.0707 -71.597
lclavicle 6.33626e-015 -7.95139e-015
lhumerus -44.8947 0.194045 91.9551
lradius 40.2204
lwrist -7.89147
lhand -8.31584 -25.066
lfingers 7.12502
lthumb 17.6049 4.15691
rfemur 0 0 0
rtibia 0
rfoot 0 0
rtoes 0
lfemur -3.69968 -6.89952 -10.4593
ltibia 24.2701
lfoot -26.0664 12.9318
ltoes -56.2186
500
root -0.645532 18.6198 6.7297 2.25923 -0.70627 -4.4648
lowerback 0.445058 0.298363 1.08925
upperback -2.86229 0.458628 1.33369
thorax -3.19106 0.219482 0.745388
lowerneck -9.8813 -0.971787 0.446273
upperneck 28.8307 -1.89752 1.35421
head 10.915 -0.661729 0.181795
rclavicle 7.70291e-016 -1.72943e-014
rhumerus -51.5734 -8.29081 -80.795
rradius 44.8361
rwrist -5.81145
rhand -11.4412 -41.0824
rfingers 7.12502
rthumb 14.5954 -70.5488
lclavicle 7.70291e-016 -1.72943e-014
lhumerus -44.8863 0.33944 91.8492
lradius 39.9763
lwrist -8.14425
lhand -8.28166 -25.1779
lfingers 7.12502
lthumb 17.6378 4.04212
rfemur 0 0 0
rtibia 0
rfoot 0 0
rtoes 0
lfemur -3.7192 -6.85787 -10.4483
ltibia 24.2535
lfoot -26.0627 12.8474
ltoes -56.1698
